<svg width="380" height="250" viewBox="0 0 380 250"
     fill="none" xmlns="http://www.w3.org/2000/svg" role="img"
     aria-label="Linguagens mais usadas">
  <title>Linguagens mais usadas</title>
  <rect x="0.5" y="0.5" width="379" height="249" rx="6"
        fill="#1a1b27" stroke="#2c2f45"/>
  <text x="25" y="35" font-family="'Segoe UI', Ubuntu, 'Helvetica Neue', Sans-Serif" font-size="18" font-weight="600"
        fill="#70a5fd">Linguagens mais usadas</text>
  <g>
    <rect x="25.00" y="55" width="137.43" height="10" rx="5" fill="#3572A5"/>
    <rect x="162.43" y="55" width="80.72" height="10" rx="0" fill="#DA5B0B"/>
    <rect x="243.15" y="55" width="31.12" height="10" rx="0" fill="#f1e05a"/>
    <rect x="274.28" y="55" width="26.91" height="10" rx="0" fill="#b07219"/>
    <rect x="301.18" y="55" width="26.91" height="10" rx="0" fill="#178600"/>
    <rect x="328.09" y="55" width="26.91" height="10" rx="5" fill="#C1F12E"/>
  </g>
  <circle cx="32" cy="96" r="5" fill="#3572A5"/>
  <text x="46" y="100" font-family="'Segoe UI', Ubuntu, 'Helvetica Neue', Sans-Serif" font-size="13" fill="#38bdae">Python</text>
  <text x="355" y="100" font-family="'Segoe UI', Ubuntu, 'Helvetica Neue', Sans-Serif" font-size="13" font-weight="600" text-anchor="end" fill="#c0caf5">41,6%</text>
  <circle cx="32" cy="122" r="5" fill="#DA5B0B"/>
  <text x="46" y="126" font-family="'Segoe UI', Ubuntu, 'Helvetica Neue', Sans-Serif" font-size="13" fill="#38bdae">Jupyter Notebook</text>
  <text x="355" y="126" font-family="'Segoe UI', Ubuntu, 'Helvetica Neue', Sans-Serif" font-size="13" font-weight="600" text-anchor="end" fill="#c0caf5">24,5%</text>
  <circle cx="32" cy="148" r="5" fill="#f1e05a"/>
  <text x="46" y="152" font-family="'Segoe UI', Ubuntu, 'Helvetica Neue', Sans-Serif" font-size="13" fill="#38bdae">JavaScript</text>
  <text x="355" y="152" font-family="'Segoe UI', Ubuntu, 'Helvetica Neue', Sans-Serif" font-size="13" font-weight="600" text-anchor="end" fill="#c0caf5">9,4%</text>
  <circle cx="32" cy="174" r="5" fill="#b07219"/>
  <text x="46" y="178" font-family="'Segoe UI', Ubuntu, 'Helvetica Neue', Sans-Serif" font-size="13" fill="#38bdae">Java</text>
  <text x="355" y="178" font-family="'Segoe UI', Ubuntu, 'Helvetica Neue', Sans-Serif" font-size="13" font-weight="600" text-anchor="end" fill="#c0caf5">8,2%</text>
  <circle cx="32" cy="200" r="5" fill="#178600"/>
  <text x="46" y="204" font-family="'Segoe UI', Ubuntu, 'Helvetica Neue', Sans-Serif" font-size="13" fill="#38bdae">C#</text>
  <text x="355" y="204" font-family="'Segoe UI', Ubuntu, 'Helvetica Neue', Sans-Serif" font-size="13" font-weight="600" text-anchor="end" fill="#c0caf5">8,2%</text>
  <circle cx="32" cy="226" r="5" fill="#C1F12E"/>
  <text x="46" y="230" font-family="'Segoe UI', Ubuntu, 'Helvetica Neue', Sans-Serif" font-size="13" fill="#38bdae">Batchfile</text>
  <text x="355" y="230" font-family="'Segoe UI', Ubuntu, 'Helvetica Neue', Sans-Serif" font-size="13" font-weight="600" text-anchor="end" fill="#c0caf5">8,2%</text>
</svg>
